# xmcd
#
# Track frame offsets:
#	188
#	17213
#	43688
#	79163
#	127388
#	147038
#	170288
#
# Disc length: 2652 seconds
#
# Revision: 9
# Processed by: cddbd v1.5.1PL0 Copyright (c) Steve Scherf et al.
# Submitted via: MusicWizard 7.2.0
#
DISCID=5c0a5a07
DTITLE=Varios - Programa Mi Salsa: Mi Salsa En Descarga Vol.1
DYEAR=1900
DGENRE=Afro-cuban
TTITLE0=Descarga #1
TTITLE1=Para Luego Es Tarde
TTITLE2=Scherezada
TTITLE3=Descarga #2
TTITLE4=En Aranjuez
TTITLE5=Alom Se Fue Para El Japon
TTITLE6=Con Su Propio Tumbao
EXTD=
EXTT0=
EXTT1=
EXTT2=
EXTT3=
EXTT4=
EXTT5=
EXTT6=
PLAYORDER=
